<svg width="20" height="20" viewBox="0 0 20 20" fill="none" xmlns="http://www.w3.org/2000/svg">
<path d="M9.11658 15.2824L6.25825 17.4058C6.05439 17.5653 5.81092 17.6663 5.55398 17.698C5.29704 17.7296 5.03634 17.6906 4.79988 17.5852C4.56342 17.4798 4.36013 17.312 4.21185 17.0998C4.06357 16.8876 3.9759 16.639 3.95825 16.3808V5.2916C3.97308 4.88299 4.06828 4.48131 4.23839 4.1095C4.40851 3.73769 4.65022 3.40304 4.94972 3.12468C5.24921 2.84632 5.60061 2.62969 5.98385 2.48717C6.36709 2.34466 6.77465 2.27905 7.18325 2.2941H12.8166C13.6414 2.26527 14.444 2.56458 15.0485 3.12645C15.653 3.68831 16.0101 4.4669 16.0416 5.2916V16.3824C16.0244 16.6409 15.9369 16.8898 15.7887 17.1022C15.6404 17.3147 15.437 17.4826 15.2004 17.588C14.9637 17.6934 14.7028 17.7322 14.4458 17.7002C14.1887 17.6682 13.9452 17.5667 13.7416 17.4066L10.8833 15.2833C10.6266 15.0964 10.3174 14.9958 9.99992 14.9958C9.68248 14.9958 9.37322 15.0956 9.11658 15.2824Z" stroke="#7F7589" stroke-width="1.5" stroke-linecap="round" stroke-linejoin="round"/>
<path d="M9.99417 5.83325V10.8333M7.5 8.33909H12.5" stroke="#7F7589" stroke-width="1.5" stroke-miterlimit="10" stroke-linecap="round"/>
</svg>
