<svg width="64" height="64" viewBox="0 0 64 64" fill="none" xmlns="http://www.w3.org/2000/svg">
<path d="M46 22.3925V21C46 14.73 36.5425 10 24 10C11.4575 10 2 14.73 2 21V31C2 36.2225 8.5625 40.3725 18 41.615V43C18 49.27 27.4575 54 40 54C52.5425 54 62 49.27 62 43V33C62 27.825 55.645 23.67 46 22.3925ZM14 36.7175C9.1025 35.35 6 33.0975 6 31V27.4825C8.04 28.9275 10.7725 30.0925 14 30.875V36.7175ZM34 30.875C37.2275 30.0925 39.96 28.9275 42 27.4825V31C42 33.0975 38.8975 35.35 34 36.7175V30.875ZM30 48.7175C25.1025 47.35 22 45.0975 22 43V41.9575C22.6575 41.9825 23.3225 42 24 42C24.97 42 25.9175 41.9675 26.8475 41.9125C27.8806 42.2824 28.933 42.5961 30 42.8525V48.7175ZM30 37.5625C28.0135 37.856 26.008 38.0022 24 38C21.992 38.0022 19.9865 37.856 18 37.5625V31.615C19.9894 31.8742 21.9937 32.0028 24 32C26.0063 32.0028 28.0106 31.8742 30 31.615V37.5625ZM46 49.5625C42.0213 50.1458 37.9787 50.1458 34 49.5625V43.6C35.9888 43.8673 37.9933 44.001 40 44C42.0063 44.0028 44.0106 43.8742 46 43.615V49.5625ZM58 43C58 45.0975 54.8975 47.35 50 48.7175V42.875C53.2275 42.0925 55.96 40.9275 58 39.4825V43Z" fill="#E0DEE3"/>
</svg>
