<svg width="125" height="35" viewBox="0 0 125 35" fill="none" xmlns="http://www.w3.org/2000/svg">
<g opacity="0.2" clip-path="url(#clip0_1702_34718)">
<path d="M51.0575 24.2049H59.8923V27.1959H47.9275V7.80859H51.0575V24.2049Z" fill="#833DDD"/>
<path d="M62.485 5.09375C63.0761 5.09375 63.5648 5.2737 63.9528 5.63361C64.3409 5.99352 64.5345 6.45066 64.5345 7.00502C64.5345 7.57729 64.3409 8.04807 63.9528 8.41736C63.5648 8.78665 63.0761 8.97087 62.485 8.97087C61.9128 8.97087 61.4326 8.78665 61.0445 8.41736C60.6565 8.04807 60.4629 7.57729 60.4629 7.00502C60.4629 6.45066 60.6565 5.99437 61.0445 5.63361C61.4317 5.2737 61.9119 5.09375 62.485 5.09375ZM60.9337 27.1957V11.9627H64.0637V27.1957H60.9337Z" fill="#833DDD"/>
<path d="M64.9736 11.9639V14.8994H67.7992V21.3513C67.7992 23.3658 68.316 24.8976 69.3497 25.95C70.3833 27.0024 71.7215 27.5286 73.3658 27.5286C74.7713 27.5286 76.0259 27.2642 77.1269 26.7329V23.8835C75.7214 24.3747 74.6519 24.6178 73.9202 24.6178C71.9245 24.6178 70.9283 23.4741 70.9283 21.1842V14.8986H77.1883V11.963H70.9283V7.80957H67.7983V11.9639H64.9736Z" fill="#833DDD"/>
<path d="M85.9483 7.80859C88.0531 7.80859 89.6966 8.38598 90.8778 9.53991C92.0591 10.6938 92.6501 12.1846 92.6501 14.0132C92.6501 15.8596 92.0548 17.3743 90.8633 18.5555C89.6727 19.7376 88.0335 20.3278 85.9474 20.3278H80.4848C80.4737 20.3278 80.4652 20.3363 80.4652 20.3474V27.1763C80.4652 27.1874 80.4567 27.1959 80.4456 27.1959H78.1864C78.1753 27.1959 78.1667 27.1874 78.1667 27.1763V9.22776C78.1667 8.44398 78.8021 7.80859 79.5859 7.80859H85.9483ZM85.8655 18.1393C87.3239 18.1393 88.4318 17.7521 89.1892 16.976C89.9457 16.2008 90.3243 15.2217 90.3243 14.0405C90.3243 12.8593 89.9457 11.8895 89.1892 11.1322C88.4318 10.3749 87.3239 9.99704 85.8655 9.99704H80.4848C80.4737 9.99704 80.4652 10.0056 80.4652 10.0167V18.1197C80.4652 18.1308 80.4737 18.1393 80.4848 18.1393H85.8655Z" fill="#833DDD"/>
<path d="M106.079 11.9626H108.379V27.1956H106.079V24.121C105.47 25.1734 104.662 25.9998 103.656 26.5994C102.65 27.199 101.5 27.4992 100.208 27.4992C98.1399 27.4992 96.4367 26.7563 95.0977 25.2698C93.7587 23.7841 93.0901 21.8865 93.0901 19.5786C93.0901 17.2708 93.7587 15.3732 95.0977 13.8866C96.4359 12.4009 98.1399 11.6572 100.208 11.6572C101.5 11.6572 102.654 11.9617 103.67 12.5715C104.685 13.1813 105.488 14.0214 106.079 15.0917V11.9626ZM100.651 25.3124C102.22 25.3124 103.521 24.7726 104.556 23.692C105.59 22.6114 106.107 21.2409 106.107 19.5795C106.107 17.9172 105.591 16.5467 104.556 15.4661C103.521 14.3855 102.22 13.8457 100.651 13.8457C99.0994 13.8457 97.8397 14.3855 96.87 15.4661C95.9003 16.5467 95.4158 17.9172 95.4158 19.5795C95.4158 21.2596 95.9045 22.6353 96.8836 23.7065C97.8627 24.7768 99.1181 25.3124 100.651 25.3124Z" fill="#833DDD"/>
<path d="M117.274 25.3122C118.843 25.3122 120.145 24.7723 121.179 23.6917C122.213 22.6111 122.73 21.2406 122.73 19.5792C122.73 17.917 122.214 16.5464 121.179 15.4658C120.145 14.3853 118.843 13.8454 117.274 13.8454C115.741 13.8454 114.486 14.3853 113.507 15.4658C112.528 16.5464 112.039 17.917 112.039 19.5792C112.039 21.2594 112.528 22.635 113.507 23.7062C114.486 24.7766 115.741 25.3122 117.274 25.3122ZM125 7.61523V27.1953H122.702V24.1199C122.111 25.1731 121.308 25.9987 120.293 26.5991C119.278 27.1996 118.123 27.4998 116.83 27.4998C114.762 27.4998 113.06 26.7561 111.721 25.2695C110.382 23.783 109.713 21.8871 109.713 19.5792C109.713 17.2688 110.382 15.3729 111.721 13.8863C113.06 12.3998 114.762 11.6561 116.83 11.6561C118.123 11.6561 119.278 11.9614 120.293 12.5712C121.308 13.1793 122.111 14.0194 122.702 15.0923V7.61523H125Z" fill="#833DDD"/>
<path d="M38.3362 28.907L37.7486 33.399C30.8677 32.5018 23.8691 32.2673 16.9541 32.7048C12.4493 32.9922 7.93078 33.5645 3.47883 34.4156C1.91639 34.7141 0.399993 33.7103 0.0656705 32.1547C0.0221745 31.9483 0 31.7427 0 31.5398C0 30.4344 0.630266 29.3999 1.65541 28.9001C5.46174 27.0452 11.8369 22.8457 14.1447 14.8125C15.5221 10.0177 15.1707 4.76154 13.1571 0.0110872H18.0048C19.8086 5.23658 19.9894 10.8689 18.4978 16.0637C17.2756 20.3212 14.9499 24.1608 11.6876 27.3548C20.1472 23.3932 25.4793 15.3763 25.2934 5.6741C25.22 3.97861 25.0239 1.90103 24.5548 0.0110872L25.2038 0C25.2038 0.00426432 25.2064 0.00682291 25.2064 0.0110872C28.1556 12.0586 23.655 22.6 13.9904 28.3893C14.8816 28.31 15.7746 28.2392 16.6675 28.1837C23.8734 27.7283 31.1636 27.9714 38.3362 28.907Z" fill="url(#paint0_linear_1702_34718)"/>
</g>
<defs>
<linearGradient id="paint0_linear_1702_34718" x1="7.53859" y1="49.9183" x2="37.5448" y2="-5.71435" gradientUnits="userSpaceOnUse">
<stop offset="0.3431" stop-color="#833DDD"/>
<stop offset="0.9098" stop-color="#EF43DA"/>
</linearGradient>
<clipPath id="clip0_1702_34718">
<rect width="125" height="34.4676" fill="white"/>
</clipPath>
</defs>
</svg>
