<svg width="20" height="20" viewBox="0 0 20 20" fill="none" xmlns="http://www.w3.org/2000/svg">
<path d="M17.5667 7.15011V12.8501C17.5667 13.7834 17.0667 14.6501 16.2584 15.1251L11.3084 17.9834C10.5 18.4501 9.50005 18.4501 8.68338 17.9834L3.73338 15.1251C2.92505 14.6584 2.42505 13.7917 2.42505 12.8501V7.15011C2.42505 6.21678 2.92505 5.35008 3.73338 4.87508L8.68338 2.01675C9.49172 1.55008 10.4917 1.55008 11.3084 2.01675L16.2584 4.87508C17.0667 5.35008 17.5667 6.20844 17.5667 7.15011Z" stroke="#7F7589" stroke-width="1.5" stroke-linecap="round" stroke-linejoin="round"/>
<path d="M10 9.16676C11.0724 9.16676 11.9417 8.29743 11.9417 7.22508C11.9417 6.15272 11.0724 5.28345 10 5.28345C8.92766 5.28345 8.05835 6.15272 8.05835 7.22508C8.05835 8.29743 8.92766 9.16676 10 9.16676Z" stroke="#7F7589" stroke-width="1.5" stroke-linecap="round" stroke-linejoin="round"/>
<path d="M13.3334 13.8834C13.3334 12.3834 11.8417 11.1667 10.0001 11.1667C8.15841 11.1667 6.66675 12.3834 6.66675 13.8834" stroke="#7F7589" stroke-width="1.5" stroke-linecap="round" stroke-linejoin="round"/>
</svg>
