<svg width="64" height="64" viewBox="0 0 64 64" fill="none" xmlns="http://www.w3.org/2000/svg">
<path d="M25.05 3.42383L22.6125 22.8751H27.9625L34.1 4.55383L25.05 3.42383ZM36.5125 4.42383L30.3375 22.8751L49.05 22.8876L53.3375 10.0613L36.5125 4.42383ZM22.5 5.75383L13.5125 6.73383L15.275 22.8751H20.3625L22.5 5.75383ZM8 19.1251C6.5625 19.1251 5.6025 20.2251 5.34125 21.2751C5.21125 21.8001 5.285 22.2251 5.4325 22.4626C5.57875 22.6876 5.78125 22.8751 6.5 22.8751H13.0125L12.6 19.1251H8ZM52.675 19.1251L51.425 22.8751H57.3625C57.0375 22.2501 56.9 21.5876 56.9875 20.9251C57.075 20.2751 57.325 19.6876 57.65 19.1251H52.675ZM5.125 25.1251V55.9876C5.125 56.6251 5.47375 57.3751 6.04625 57.9501C6.62 58.5251 7.375 58.8751 8 58.8751L56 58.8876C56.625 58.8876 57.375 58.5376 57.95 57.9626C58.525 57.3876 58.875 56.6376 58.875 56.0001V47.1251H48C42.5 47.1251 42.5 36.8751 48 36.8751H58.875V25.1376L5.125 25.1251ZM48 39.1251C45.5 39.1251 45.5 44.8751 48 44.8751H50.7875C49.6625 44.4001 48.875 43.2876 48.875 42.0001C48.875 40.7126 49.6625 39.6001 50.7875 39.1251H48ZM53.2125 39.1251C54.3375 39.6001 55.125 40.7126 55.125 42.0001C55.125 43.2876 54.3375 44.4001 53.2125 44.8751H60.875V39.1251H53.2125ZM52 41.1251C51.5 41.1251 51.125 41.5001 51.125 42.0001C51.125 42.5001 51.5 42.8751 52 42.8751C52.5 42.8751 52.875 42.5001 52.875 42.0001C52.875 41.5001 52.5 41.1251 52 41.1251Z" fill="#E0DEE3"/>
</svg>
